<svg id="svg" version="1.1" xmlns="http://www.w3.org/2000/svg" xmlns:xlink="http://www.w3.org/1999/xlink" width="400" height="71.60751565762004" viewBox="0, 0, 400,71.60751565762004"><g id="svgg"><path id="path0" d="M20.583 8.333 C 20.527 8.425,20.204 8.500,19.865 8.501 C 19.082 8.501,16.282 8.987,16.169 9.142 C 16.122 9.206,15.652 9.392,15.125 9.555 C 14.598 9.717,14.167 9.922,14.167 10.009 C 14.167 10.095,14.066 10.167,13.942 10.167 C 13.702 10.167,12.638 10.655,12.500 10.829 C 12.454 10.887,12.135 11.065,11.792 11.225 C 11.448 11.385,11.167 11.570,11.167 11.637 C 11.167 11.703,10.910 11.896,10.597 12.064 C 9.889 12.446,6.000 16.410,6.000 16.751 C 6.000 16.888,5.931 17.000,5.847 17.000 C 5.763 17.000,5.557 17.259,5.389 17.575 C 4.276 19.668,3.851 20.564,3.653 21.236 C 3.529 21.656,3.377 22.000,3.315 22.000 C 3.253 22.000,3.066 22.731,2.901 23.625 C 2.735 24.519,2.521 25.304,2.425 25.369 C 2.154 25.553,2.186 34.201,2.458 34.292 C 2.573 34.330,2.667 34.508,2.667 34.688 C 2.667 35.233,3.188 37.577,3.329 37.666 C 3.402 37.712,3.592 38.219,3.753 38.792 C 3.913 39.365,4.097 39.833,4.162 39.833 C 4.227 39.833,4.382 40.141,4.506 40.518 C 4.630 40.894,4.830 41.240,4.949 41.286 C 5.069 41.331,5.167 41.455,5.167 41.559 C 5.167 41.745,6.091 43.167,6.752 44.000 C 6.934 44.229,7.683 45.001,8.417 45.715 C 10.218 47.469,10.435 47.667,10.558 47.667 C 10.616 47.667,11.008 47.929,11.428 48.250 C 11.848 48.571,12.299 48.833,12.429 48.833 C 12.560 48.833,12.667 48.902,12.667 48.986 C 12.667 49.070,13.023 49.274,13.458 49.438 C 13.894 49.603,14.335 49.820,14.439 49.921 C 14.543 50.022,15.068 50.208,15.606 50.334 C 16.143 50.460,16.623 50.622,16.672 50.692 C 17.241 51.509,28.833 51.465,28.833 50.646 C 28.833 50.566,28.937 50.500,29.064 50.500 C 29.473 50.500,31.000 49.954,31.000 49.808 C 31.000 49.730,31.101 49.667,31.224 49.667 C 31.476 49.667,32.538 49.172,32.667 48.995 C 32.712 48.932,32.975 48.754,33.250 48.600 C 34.319 48.000,37.499 45.082,37.500 44.699 C 37.501 44.636,37.725 44.321,38.000 44.000 C 38.275 43.679,38.499 43.327,38.500 43.217 C 38.500 43.107,38.595 42.957,38.711 42.883 C 38.827 42.810,39.071 42.432,39.253 42.044 C 39.435 41.655,39.636 41.336,39.700 41.335 C 39.764 41.334,39.946 40.921,40.105 40.417 C 40.264 39.912,40.447 39.500,40.512 39.500 C 40.577 39.500,40.765 38.994,40.930 38.375 C 41.095 37.756,41.278 37.212,41.337 37.167 C 41.445 37.083,41.833 35.301,41.833 34.889 C 41.833 34.709,40.891 34.667,36.848 34.667 L 31.863 34.667 31.749 35.337 C 31.687 35.705,31.541 36.102,31.425 36.218 C 31.309 36.334,31.110 36.717,30.983 37.069 C 30.855 37.421,30.657 37.745,30.542 37.789 C 30.427 37.833,30.333 37.957,30.333 38.064 C 30.333 38.289,28.242 40.333,28.012 40.333 C 27.927 40.333,27.752 40.439,27.623 40.567 C 27.380 40.810,25.993 41.333,25.591 41.333 C 25.465 41.333,25.330 41.427,25.292 41.542 C 25.202 41.810,20.217 41.842,20.036 41.575 C 19.970 41.479,19.448 41.261,18.875 41.091 C 18.302 40.920,17.833 40.716,17.833 40.636 C 17.833 40.557,17.646 40.421,17.418 40.334 C 16.886 40.131,14.333 37.693,14.333 37.387 C 14.333 37.260,14.229 37.116,14.102 37.067 C 13.975 37.019,13.738 36.627,13.576 36.198 C 13.413 35.768,13.231 35.379,13.170 35.333 C 13.017 35.219,12.500 33.311,12.500 32.864 C 12.500 32.664,12.425 32.500,12.333 32.500 C 12.229 32.500,12.167 31.528,12.167 29.917 C 12.167 28.496,12.226 27.333,12.299 27.333 C 12.372 27.333,12.520 26.821,12.627 26.194 C 12.827 25.031,13.557 23.337,14.269 22.386 C 14.488 22.094,14.667 21.819,14.667 21.774 C 14.667 21.628,15.634 20.721,16.535 20.022 C 17.020 19.646,17.492 19.264,17.583 19.173 C 17.675 19.082,18.162 18.884,18.667 18.732 C 19.171 18.580,19.625 18.390,19.677 18.311 C 19.998 17.813,24.967 17.828,25.580 18.328 C 25.673 18.405,26.057 18.549,26.432 18.650 C 26.807 18.750,27.287 18.982,27.499 19.166 C 27.711 19.350,27.967 19.500,28.068 19.500 C 28.169 19.500,28.463 19.725,28.723 20.000 C 28.983 20.275,29.264 20.500,29.347 20.500 C 29.431 20.500,29.500 20.563,29.500 20.640 C 29.500 20.717,29.837 21.138,30.250 21.574 C 30.662 22.011,31.000 22.468,31.000 22.589 C 31.000 22.710,31.107 22.916,31.237 23.046 C 31.367 23.177,31.557 23.594,31.660 23.975 L 31.846 24.667 36.840 24.667 C 41.485 24.667,41.833 24.646,41.832 24.375 C 41.831 23.972,41.489 22.768,41.346 22.667 C 41.282 22.621,41.095 22.077,40.930 21.458 C 40.765 20.840,40.577 20.333,40.512 20.333 C 40.447 20.333,40.264 19.921,40.105 19.417 C 39.946 18.912,39.761 18.500,39.692 18.500 C 39.624 18.500,39.429 18.163,39.259 17.750 C 39.089 17.337,38.890 17.000,38.816 17.000 C 38.742 17.000,38.561 16.744,38.413 16.432 C 38.264 16.119,37.998 15.733,37.822 15.573 C 37.645 15.413,37.500 15.211,37.500 15.124 C 37.500 15.038,37.294 14.766,37.042 14.521 C 36.790 14.276,36.339 13.814,36.039 13.496 C 35.019 12.409,33.245 11.000,32.897 11.000 C 32.790 11.000,32.665 10.902,32.619 10.783 C 32.573 10.663,32.227 10.463,31.851 10.339 C 31.475 10.215,31.167 10.056,31.167 9.985 C 31.167 9.915,30.735 9.732,30.208 9.579 C 29.681 9.427,29.171 9.237,29.074 9.157 C 28.847 8.971,26.151 8.500,25.312 8.500 C 24.957 8.500,24.667 8.425,24.667 8.333 C 24.667 8.232,23.892 8.167,22.677 8.167 C 21.530 8.167,20.643 8.237,20.583 8.333 M345.417 8.333 C 345.360 8.425,344.999 8.500,344.615 8.500 C 343.808 8.499,340.957 8.993,340.833 9.155 C 340.787 9.215,340.412 9.369,340.000 9.498 C 339.262 9.729,337.496 10.601,337.333 10.815 C 337.287 10.875,337.039 11.059,336.781 11.223 C 335.507 12.034,333.333 14.392,333.333 14.963 C 333.333 15.062,333.228 15.248,333.099 15.377 C 332.856 15.620,332.333 17.007,332.333 17.409 C 332.333 17.535,332.258 17.664,332.166 17.695 C 331.638 17.871,331.618 24.818,332.145 25.157 C 332.224 25.208,332.414 25.681,332.566 26.208 C 332.718 26.735,332.907 27.167,332.987 27.167 C 333.066 27.167,333.174 27.335,333.228 27.542 C 333.316 27.883,333.631 28.318,334.466 29.250 C 334.872 29.704,335.670 30.325,336.125 30.542 C 336.331 30.640,336.500 30.773,336.500 30.837 C 336.500 30.902,336.856 31.091,337.292 31.257 C 337.727 31.423,338.168 31.645,338.273 31.749 C 338.377 31.853,338.883 32.033,339.398 32.148 C 339.912 32.263,340.333 32.415,340.333 32.485 C 340.333 32.607,341.599 32.860,343.417 33.102 C 343.875 33.163,344.287 33.263,344.333 33.324 C 344.379 33.385,345.429 33.574,346.667 33.745 C 347.904 33.916,348.954 34.100,349.000 34.155 C 349.046 34.210,349.758 34.390,350.583 34.555 C 351.408 34.721,352.108 34.926,352.139 35.011 C 352.169 35.097,352.271 35.167,352.364 35.167 C 353.593 35.167,355.163 37.046,355.166 38.521 C 355.168 39.545,354.144 41.333,353.556 41.333 C 353.433 41.333,353.333 41.407,353.333 41.498 C 353.333 41.691,352.261 42.167,351.827 42.167 C 351.662 42.167,351.497 42.260,351.458 42.375 C 351.369 42.644,345.386 42.677,345.202 42.410 C 345.137 42.314,344.749 42.128,344.341 41.997 C 343.933 41.865,343.485 41.625,343.346 41.462 C 343.206 41.300,343.011 41.167,342.910 41.167 C 342.707 41.167,341.667 40.047,341.667 39.829 C 341.667 39.753,341.568 39.591,341.447 39.470 C 341.122 39.144,340.833 38.205,340.833 37.475 L 340.833 36.833 335.833 36.833 L 330.833 36.833 330.833 37.557 C 330.833 38.507,331.177 41.060,331.319 41.167 C 331.381 41.212,331.536 41.587,331.664 42.000 C 331.886 42.713,332.780 44.489,333.006 44.667 C 333.064 44.712,333.187 44.888,333.279 45.056 C 333.562 45.574,336.027 48.000,336.271 48.000 C 336.397 48.000,336.500 48.073,336.500 48.162 C 336.500 48.252,336.744 48.450,337.042 48.602 C 337.340 48.755,337.621 48.934,337.667 49.000 C 337.803 49.196,338.796 49.667,339.075 49.667 C 339.217 49.667,339.333 49.728,339.333 49.803 C 339.333 49.950,340.944 50.500,341.376 50.500 C 341.520 50.500,341.664 50.570,341.694 50.656 C 341.988 51.479,355.167 51.487,355.167 50.665 C 355.167 50.599,355.623 50.449,356.180 50.330 C 356.738 50.212,357.282 50.028,357.389 49.921 C 357.496 49.814,357.940 49.590,358.375 49.424 C 358.810 49.257,359.167 49.075,359.167 49.018 C 359.167 48.961,359.399 48.812,359.684 48.686 C 360.373 48.381,363.047 45.692,363.322 45.027 C 363.442 44.737,363.600 44.500,363.673 44.500 C 363.747 44.500,363.936 44.106,364.095 43.625 C 364.253 43.144,364.439 42.712,364.508 42.667 C 365.149 42.243,365.141 33.833,364.500 33.833 C 364.426 33.833,364.279 33.467,364.171 33.019 C 364.064 32.571,363.869 32.065,363.739 31.894 C 362.536 30.316,362.055 29.787,361.281 29.191 C 360.789 28.811,360.299 28.500,360.193 28.500 C 360.087 28.500,360.000 28.430,360.000 28.345 C 360.000 28.259,359.831 28.136,359.625 28.072 C 359.419 28.007,358.781 27.741,358.209 27.479 C 357.636 27.218,356.867 26.956,356.500 26.897 C 356.133 26.839,355.833 26.738,355.833 26.672 C 355.833 26.540,352.981 26.000,352.282 26.000 C 352.035 26.000,351.833 25.937,351.833 25.860 C 351.833 25.783,350.840 25.586,349.625 25.422 C 348.410 25.258,347.342 25.070,347.250 25.005 C 347.158 24.940,346.521 24.792,345.833 24.677 C 344.674 24.483,342.500 23.586,342.500 23.302 C 342.500 23.235,342.348 23.038,342.162 22.865 C 341.572 22.315,341.581 19.500,342.173 19.500 C 342.261 19.500,342.333 19.397,342.333 19.271 C 342.333 18.974,343.452 18.009,344.042 17.798 C 344.294 17.708,344.500 17.574,344.500 17.501 C 344.500 16.919,350.408 16.911,350.833 17.492 C 350.879 17.555,351.234 17.731,351.621 17.884 C 352.293 18.148,354.000 19.632,354.000 19.952 C 354.000 20.036,354.159 20.275,354.354 20.483 C 354.611 20.759,354.731 21.156,354.793 21.932 L 354.879 23.000 359.881 23.000 L 364.884 23.000 364.783 21.223 C 364.728 20.246,364.616 19.402,364.536 19.348 C 364.455 19.294,364.305 18.823,364.202 18.300 C 364.010 17.329,363.092 15.167,362.871 15.167 C 362.803 15.167,362.652 14.950,362.535 14.685 C 362.167 13.854,359.190 11.000,358.691 11.000 C 358.586 11.000,358.500 10.935,358.500 10.856 C 358.500 10.667,356.620 9.755,355.667 9.481 C 355.254 9.363,354.879 9.218,354.833 9.160 C 354.702 8.993,352.851 8.670,351.360 8.555 C 350.612 8.498,350.000 8.387,350.000 8.309 C 350.000 8.105,345.543 8.129,345.417 8.333 M42.000 9.331 C 42.000 9.607,42.061 9.833,42.136 9.833 C 42.211 9.833,42.405 10.396,42.567 11.083 C 42.729 11.771,42.917 12.333,42.984 12.333 C 43.051 12.333,43.238 12.896,43.400 13.583 C 43.562 14.271,43.752 14.833,43.822 14.833 C 43.892 14.833,44.075 15.410,44.230 16.115 C 44.385 16.820,44.577 17.476,44.658 17.573 C 44.738 17.671,44.929 18.237,45.083 18.833 C 45.237 19.429,45.425 19.992,45.500 20.083 C 45.575 20.175,45.763 20.737,45.917 21.333 C 46.071 21.929,46.258 22.492,46.333 22.583 C 46.409 22.675,46.596 23.238,46.750 23.833 C 46.904 24.429,47.091 24.992,47.167 25.083 C 47.242 25.175,47.429 25.738,47.583 26.333 C 47.737 26.929,47.925 27.492,48.000 27.583 C 48.075 27.675,48.263 28.238,48.417 28.833 C 48.571 29.429,48.763 29.997,48.843 30.095 C 48.924 30.193,49.076 30.680,49.181 31.178 C 49.286 31.676,49.430 32.158,49.502 32.250 C 49.573 32.342,49.765 32.904,49.928 33.500 C 50.092 34.096,50.273 34.621,50.331 34.667 C 50.390 34.712,50.576 35.275,50.745 35.917 C 50.915 36.558,51.102 37.121,51.162 37.167 C 51.222 37.212,51.409 37.775,51.579 38.417 C 51.748 39.058,51.935 39.621,51.995 39.667 C 52.055 39.712,52.242 40.275,52.412 40.917 C 52.581 41.558,52.771 42.121,52.835 42.167 C 52.898 42.212,53.081 42.794,53.243 43.458 C 53.404 44.123,53.590 44.667,53.656 44.667 C 53.722 44.667,53.905 45.267,54.063 46.000 C 54.221 46.733,54.409 47.333,54.482 47.333 C 54.554 47.333,54.710 47.765,54.827 48.292 C 54.944 48.819,55.195 49.606,55.385 50.042 L 55.729 50.833 62.765 50.833 L 69.800 50.833 70.000 49.999 C 70.110 49.541,70.260 49.129,70.333 49.083 C 70.407 49.038,70.559 48.607,70.672 48.126 C 70.785 47.644,70.931 47.175,70.998 47.083 C 71.065 46.992,71.257 46.392,71.424 45.750 C 71.592 45.108,71.778 44.546,71.838 44.500 C 71.898 44.454,72.085 43.892,72.255 43.250 C 72.424 42.608,72.610 42.046,72.667 42.000 C 72.724 41.954,72.909 41.392,73.079 40.750 C 73.248 40.108,73.435 39.546,73.495 39.500 C 73.555 39.454,73.742 38.892,73.912 38.250 C 74.081 37.608,74.269 37.046,74.329 37.000 C 74.388 36.954,74.574 36.392,74.742 35.750 C 74.910 35.108,75.104 34.508,75.172 34.417 C 75.241 34.325,75.430 33.762,75.591 33.167 C 75.753 32.571,75.938 32.008,76.003 31.917 C 76.068 31.825,76.252 31.206,76.412 30.542 C 76.572 29.877,76.756 29.333,76.821 29.333 C 76.886 29.333,77.072 28.771,77.234 28.083 C 77.396 27.396,77.585 26.833,77.654 26.833 C 77.724 26.833,77.874 26.402,77.989 25.875 C 78.104 25.348,78.305 24.695,78.436 24.424 C 78.568 24.153,78.793 23.478,78.936 22.924 C 79.079 22.370,79.258 21.842,79.333 21.750 C 79.409 21.658,79.589 21.124,79.734 20.562 C 79.880 20.001,80.105 19.336,80.235 19.086 C 80.365 18.835,80.566 18.151,80.683 17.565 C 80.799 16.979,80.949 16.500,81.016 16.500 C 81.083 16.500,81.271 15.938,81.433 15.250 C 81.595 14.563,81.781 14.000,81.846 14.000 C 81.911 14.000,82.096 13.456,82.257 12.792 C 82.419 12.127,82.607 11.546,82.677 11.500 C 82.817 11.406,83.333 9.520,83.333 9.101 C 83.333 8.861,82.781 8.833,77.939 8.833 L 72.545 8.833 72.253 10.042 C 72.092 10.706,71.908 11.287,71.845 11.333 C 71.781 11.379,71.591 11.942,71.421 12.583 C 71.252 13.225,71.061 13.787,70.997 13.833 C 70.933 13.879,70.753 14.498,70.596 15.208 C 70.439 15.919,70.253 16.500,70.182 16.500 C 70.111 16.500,69.960 16.918,69.845 17.428 C 69.731 17.939,69.502 18.670,69.335 19.053 C 69.169 19.437,68.982 20.069,68.919 20.458 C 68.856 20.848,68.750 21.167,68.684 21.167 C 68.618 21.167,68.426 21.710,68.257 22.375 C 68.089 23.040,67.892 23.660,67.820 23.753 C 67.748 23.847,67.560 24.447,67.401 25.087 C 67.242 25.726,67.061 26.287,66.998 26.333 C 66.935 26.379,66.752 26.961,66.590 27.626 C 66.429 28.292,66.235 28.875,66.159 28.921 C 66.083 28.968,65.896 29.568,65.744 30.254 C 65.591 30.940,65.405 31.539,65.330 31.585 C 65.256 31.631,65.062 32.231,64.900 32.918 C 64.738 33.605,64.548 34.167,64.478 34.167 C 64.407 34.167,64.221 34.767,64.063 35.500 C 63.905 36.233,63.726 36.833,63.665 36.833 C 63.603 36.833,63.454 37.246,63.333 37.750 C 63.068 38.855,62.412 39.102,62.225 38.167 C 62.170 37.892,62.074 37.667,62.013 37.667 C 61.951 37.667,61.758 37.085,61.584 36.375 C 61.409 35.665,61.218 35.046,61.159 35.000 C 61.099 34.954,60.919 34.373,60.757 33.708 C 60.596 33.044,60.411 32.500,60.346 32.500 C 60.281 32.500,60.094 31.935,59.932 31.245 C 59.769 30.554,59.537 29.785,59.417 29.536 C 59.296 29.287,59.104 28.652,58.989 28.125 C 58.874 27.598,58.730 27.167,58.668 27.167 C 58.606 27.167,58.414 26.585,58.240 25.875 C 58.067 25.165,57.881 24.546,57.827 24.500 C 57.774 24.454,57.591 23.892,57.421 23.250 C 57.252 22.608,57.063 22.046,57.001 22.000 C 56.939 21.954,56.747 21.354,56.574 20.667 C 56.401 19.979,56.215 19.379,56.161 19.333 C 56.107 19.287,55.924 18.725,55.755 18.083 C 55.585 17.442,55.395 16.879,55.332 16.833 C 55.269 16.787,55.083 16.188,54.919 15.500 C 54.755 14.813,54.563 14.175,54.492 14.083 C 54.421 13.992,54.237 13.429,54.083 12.833 C 53.929 12.237,53.741 11.674,53.664 11.581 C 53.587 11.488,53.383 10.850,53.210 10.164 L 52.896 8.917 47.448 8.873 L 42.000 8.829 42.000 9.331 M101.541 29.792 L 101.583 50.750 106.583 50.750 L 111.583 50.750 111.626 38.375 L 111.669 26.000 112.093 26.000 C 112.426 26.000,112.573 26.135,112.777 26.625 C 112.920 26.969,113.092 27.287,113.159 27.333 C 113.226 27.379,113.415 27.773,113.580 28.208 C 113.744 28.644,113.928 29.000,113.988 29.000 C 114.049 29.000,114.238 29.337,114.408 29.750 C 114.578 30.162,114.766 30.500,114.826 30.500 C 114.885 30.500,115.069 30.875,115.234 31.333 C 115.399 31.792,115.586 32.167,115.650 32.167 C 115.715 32.167,115.900 32.536,116.062 32.987 C 116.225 33.438,116.450 33.842,116.563 33.886 C 116.676 33.929,116.870 34.273,116.994 34.649 C 117.118 35.025,117.275 35.333,117.343 35.333 C 117.411 35.333,117.601 35.708,117.766 36.167 C 117.931 36.625,118.116 37.000,118.177 37.000 C 118.238 37.000,118.417 37.338,118.574 37.750 C 118.732 38.163,118.920 38.500,118.991 38.500 C 119.063 38.500,119.257 38.854,119.422 39.287 C 119.587 39.720,119.785 40.151,119.861 40.245 C 120.015 40.435,120.757 41.841,122.108 44.500 C 122.596 45.462,123.108 46.395,123.245 46.572 C 123.382 46.749,123.576 47.143,123.677 47.447 C 123.777 47.751,123.914 48.000,123.980 48.000 C 124.046 48.000,124.236 48.375,124.400 48.833 C 124.565 49.292,124.753 49.667,124.817 49.667 C 124.881 49.667,125.028 49.929,125.144 50.250 L 125.355 50.833 131.427 50.833 L 137.500 50.833 137.500 29.833 L 137.500 8.833 132.500 8.833 L 127.500 8.833 127.500 21.333 C 127.500 33.201,127.485 33.833,127.204 33.833 C 126.840 33.833,126.507 33.457,126.097 32.583 C 125.925 32.217,125.732 31.879,125.668 31.833 C 125.605 31.787,125.418 31.394,125.254 30.958 C 125.089 30.523,124.905 30.167,124.844 30.167 C 124.783 30.167,124.598 29.792,124.433 29.333 C 124.268 28.875,124.072 28.500,123.997 28.500 C 123.922 28.500,123.732 28.162,123.574 27.750 C 123.417 27.337,123.240 27.000,123.181 27.000 C 123.122 27.000,122.928 26.625,122.750 26.167 C 122.572 25.708,122.378 25.333,122.319 25.333 C 122.260 25.333,122.083 24.996,121.926 24.583 C 121.768 24.171,121.580 23.833,121.509 23.833 C 121.437 23.833,121.243 23.479,121.078 23.046 C 120.913 22.614,120.714 22.182,120.636 22.088 C 120.558 21.994,120.185 21.317,119.807 20.583 C 116.741 14.639,116.632 14.433,116.498 14.333 C 116.436 14.287,116.252 13.894,116.087 13.458 C 115.923 13.023,115.738 12.667,115.677 12.667 C 115.616 12.667,115.431 12.292,115.266 11.833 C 115.101 11.375,114.905 11.000,114.830 11.000 C 114.756 11.000,114.565 10.662,114.408 10.250 C 114.250 9.837,114.065 9.500,113.997 9.500 C 113.928 9.500,113.833 9.350,113.785 9.167 C 113.700 8.841,113.558 8.833,107.598 8.833 L 101.499 8.833 101.541 29.792 M145.167 29.833 L 145.167 50.833 159.667 50.833 L 174.167 50.833 174.167 46.333 L 174.167 41.833 164.667 41.833 L 155.167 41.833 155.167 38.083 L 155.167 34.333 164.167 34.333 L 173.167 34.333 173.167 29.917 L 173.167 25.500 164.167 25.500 L 155.167 25.500 155.167 21.667 L 155.167 17.833 164.667 17.833 L 174.167 17.833 174.167 13.333 L 174.167 8.833 159.667 8.833 L 145.167 8.833 145.167 29.833 M180.874 29.792 L 180.917 50.750 195.375 50.793 L 209.833 50.835 209.833 46.334 L 209.833 41.833 200.417 41.833 L 191.000 41.833 191.000 38.083 L 191.000 34.333 199.917 34.333 L 208.833 34.333 208.833 29.917 L 208.833 25.500 199.917 25.500 L 191.000 25.500 191.000 21.667 L 191.000 17.833 200.417 17.833 L 209.833 17.833 209.833 13.333 L 209.833 8.833 195.333 8.833 L 180.832 8.833 180.874 29.792 M216.667 29.822 L 216.667 50.833 226.073 50.833 C 232.165 50.833,235.517 50.775,235.583 50.667 C 235.640 50.575,235.873 50.500,236.100 50.500 C 236.668 50.500,239.063 49.996,239.166 49.855 C 239.212 49.792,239.681 49.608,240.208 49.445 C 240.735 49.283,241.167 49.094,241.167 49.025 C 241.167 48.956,241.443 48.800,241.780 48.679 C 242.117 48.557,242.872 48.129,243.457 47.728 C 244.042 47.328,244.575 47.000,244.640 47.000 C 244.706 47.000,244.955 46.794,245.194 46.542 C 245.433 46.290,246.087 45.671,246.646 45.167 C 247.205 44.663,247.664 44.184,247.665 44.102 C 247.666 44.021,247.835 43.792,248.042 43.593 C 248.591 43.063,249.147 42.314,249.378 41.792 C 249.490 41.540,249.633 41.333,249.696 41.333 C 249.875 41.333,251.623 37.653,251.754 37.000 C 251.819 36.679,251.939 36.334,252.020 36.232 C 252.835 35.217,252.816 24.109,251.999 23.500 C 251.938 23.454,251.795 23.044,251.682 22.590 C 251.570 22.135,251.295 21.364,251.072 20.876 C 250.849 20.389,250.667 19.917,250.667 19.828 C 250.667 19.739,250.597 19.667,250.511 19.667 C 250.426 19.667,250.303 19.500,250.238 19.296 C 250.132 18.961,249.470 17.906,248.705 16.854 C 248.313 16.316,245.184 13.174,244.574 12.708 C 243.678 12.022,242.313 11.198,241.904 11.095 C 241.682 11.039,241.500 10.932,241.500 10.857 C 241.500 10.782,241.069 10.578,240.542 10.403 C 240.015 10.228,239.543 10.031,239.494 9.966 C 239.446 9.901,238.808 9.725,238.078 9.576 C 237.347 9.428,236.600 9.218,236.417 9.111 C 236.176 8.971,233.387 8.902,226.375 8.864 L 216.667 8.812 216.667 29.822 M259.000 29.833 L 259.000 50.833 264.000 50.833 L 269.000 50.833 269.000 42.667 L 269.000 34.500 277.669 34.500 L 286.339 34.500 286.294 30.125 L 286.250 25.750 277.625 25.707 L 269.000 25.664 269.000 21.749 L 269.000 17.833 278.417 17.833 L 287.833 17.833 287.833 13.333 L 287.833 8.833 273.417 8.833 L 259.000 8.833 259.000 29.833 M301.083 9.500 C 301.021 9.867,300.910 10.167,300.835 10.167 C 300.761 10.167,300.613 10.530,300.506 10.974 C 300.400 11.418,300.204 11.989,300.072 12.244 C 299.940 12.499,299.713 13.167,299.568 13.729 C 299.422 14.290,299.242 14.825,299.167 14.917 C 299.091 15.008,298.904 15.571,298.750 16.167 C 298.596 16.762,298.412 17.325,298.341 17.417 C 298.270 17.508,298.077 18.033,297.912 18.583 C 297.747 19.133,297.557 19.658,297.491 19.750 C 297.424 19.842,297.235 20.404,297.072 21.000 C 296.908 21.596,296.727 22.121,296.669 22.167 C 296.610 22.212,296.424 22.775,296.255 23.417 C 296.085 24.058,295.898 24.621,295.838 24.667 C 295.778 24.712,295.595 25.256,295.430 25.875 C 295.265 26.494,295.080 27.000,295.018 27.000 C 294.957 27.000,294.768 27.544,294.598 28.208 C 294.428 28.873,294.238 29.454,294.176 29.500 C 294.114 29.546,293.924 30.108,293.755 30.750 C 293.585 31.392,293.398 31.954,293.338 32.000 C 293.278 32.046,293.095 32.590,292.930 33.208 C 292.765 33.827,292.577 34.333,292.514 34.333 C 292.450 34.333,292.258 34.877,292.088 35.542 C 291.917 36.206,291.727 36.787,291.666 36.833 C 291.604 36.879,291.415 37.442,291.245 38.083 C 291.076 38.725,290.890 39.287,290.831 39.333 C 290.773 39.379,290.591 39.904,290.427 40.500 C 290.263 41.096,290.069 41.621,289.997 41.667 C 289.925 41.712,289.748 42.162,289.606 42.667 C 289.255 43.903,288.676 45.638,288.409 46.250 C 288.290 46.525,288.099 47.125,287.985 47.583 C 287.872 48.042,287.713 48.461,287.632 48.515 C 287.486 48.612,287.006 50.221,287.002 50.625 C 287.000 50.787,288.192 50.833,292.410 50.833 L 297.820 50.833 298.010 50.125 C 298.114 49.735,298.257 49.342,298.328 49.250 C 298.399 49.158,298.551 48.671,298.666 48.167 C 298.781 47.663,299.008 46.950,299.170 46.583 C 299.331 46.217,299.559 45.485,299.675 44.958 C 299.791 44.431,299.949 44.000,300.025 44.000 C 300.101 44.000,300.211 43.700,300.269 43.333 L 300.376 42.667 308.275 42.667 L 316.175 42.667 316.275 43.167 C 316.330 43.442,316.426 43.667,316.487 43.667 C 316.549 43.667,316.742 44.248,316.916 44.958 C 317.091 45.669,317.281 46.288,317.339 46.333 C 317.397 46.379,317.584 46.960,317.754 47.625 C 317.925 48.290,318.115 48.833,318.176 48.833 C 318.237 48.833,318.383 49.283,318.500 49.833 L 318.712 50.833 324.106 50.833 C 328.878 50.833,329.500 50.803,329.500 50.574 C 329.500 50.179,329.128 48.761,329.000 48.667 C 328.937 48.621,328.748 48.058,328.579 47.417 C 328.409 46.775,328.223 46.212,328.164 46.167 C 328.105 46.121,327.914 45.577,327.739 44.958 C 327.564 44.340,327.372 43.833,327.312 43.833 C 327.252 43.833,327.071 43.290,326.909 42.625 C 326.748 41.960,326.559 41.379,326.490 41.333 C 326.421 41.287,326.238 40.762,326.084 40.166 C 325.930 39.571,325.744 39.008,325.672 38.917 C 325.599 38.825,325.411 38.300,325.254 37.750 C 325.096 37.200,324.911 36.712,324.842 36.667 C 324.774 36.621,324.585 36.040,324.424 35.375 C 324.263 34.710,324.078 34.167,324.013 34.167 C 323.947 34.167,323.762 33.604,323.600 32.917 C 323.438 32.229,323.236 31.667,323.152 31.667 C 323.069 31.667,323.000 31.563,323.000 31.436 C 323.000 31.132,322.462 29.440,322.331 29.333 C 322.275 29.287,322.091 28.725,321.921 28.083 C 321.752 27.442,321.563 26.879,321.501 26.833 C 321.439 26.787,321.249 26.206,321.079 25.542 C 320.909 24.877,320.709 24.333,320.635 24.333 C 320.561 24.333,320.500 24.229,320.500 24.102 C 320.500 23.799,319.962 22.107,319.831 22.000 C 319.775 21.954,319.591 21.392,319.421 20.750 C 319.252 20.108,319.065 19.546,319.005 19.500 C 318.945 19.454,318.758 18.892,318.588 18.250 C 318.419 17.608,318.232 17.046,318.174 17.000 C 318.115 16.954,317.925 16.429,317.750 15.833 C 317.575 15.237,317.385 14.713,317.326 14.667 C 317.268 14.621,317.081 14.058,316.912 13.417 C 316.742 12.775,316.556 12.213,316.498 12.167 C 316.440 12.121,316.293 11.708,316.173 11.250 C 316.052 10.792,315.859 10.192,315.745 9.917 C 315.630 9.642,315.493 9.285,315.440 9.125 C 315.350 8.853,314.859 8.833,308.270 8.833 L 301.196 8.833 301.083 9.500 M366.872 13.625 L 366.917 18.417 372.792 18.460 L 378.667 18.504 378.667 34.669 L 378.667 50.833 383.500 50.833 L 388.333 50.833 388.333 34.667 L 388.333 18.500 394.167 18.500 L 400.000 18.500 400.000 13.667 L 400.000 8.833 383.414 8.833 L 366.828 8.833 366.872 13.625 M235.250 18.849 C 235.617 18.971,235.954 19.117,236.000 19.175 C 236.046 19.233,236.440 19.415,236.875 19.580 C 237.310 19.744,237.667 19.946,237.667 20.028 C 237.667 20.110,237.799 20.231,237.961 20.297 C 238.582 20.549,239.825 21.607,240.111 22.125 C 240.275 22.423,240.468 22.667,240.541 22.667 C 240.613 22.667,240.797 22.929,240.950 23.250 C 241.103 23.571,241.277 23.833,241.337 23.833 C 241.397 23.833,241.586 24.246,241.757 24.750 C 241.929 25.254,242.120 25.667,242.182 25.667 C 242.431 25.667,242.741 28.028,242.741 29.917 C 242.741 31.867,242.429 34.167,242.163 34.167 C 242.091 34.167,241.903 34.575,241.746 35.073 C 241.589 35.572,241.357 36.019,241.230 36.068 C 241.104 36.116,241.000 36.271,241.000 36.412 C 241.000 36.749,238.357 39.421,237.875 39.572 C 237.669 39.636,237.500 39.744,237.500 39.812 C 237.500 39.879,237.125 40.069,236.667 40.234 C 236.208 40.399,235.833 40.593,235.833 40.666 C 235.833 40.962,233.529 41.167,230.195 41.167 L 226.667 41.167 226.667 29.814 L 226.667 18.462 230.625 18.545 C 233.253 18.600,234.807 18.703,235.250 18.849 M308.910 20.125 C 309.065 20.560,309.314 21.329,309.463 21.833 C 309.612 22.337,309.781 22.787,309.838 22.833 C 309.895 22.879,310.077 23.479,310.241 24.167 C 310.405 24.854,310.592 25.454,310.655 25.500 C 310.719 25.546,310.909 26.108,311.079 26.750 C 311.248 27.392,311.439 27.954,311.503 28.000 C 311.567 28.046,311.747 28.665,311.904 29.375 C 312.061 30.085,312.246 30.667,312.314 30.667 C 312.383 30.667,312.572 31.229,312.734 31.917 C 312.896 32.604,313.097 33.167,313.181 33.167 C 313.265 33.167,313.333 33.317,313.333 33.500 C 313.333 33.826,313.223 33.833,308.208 33.831 C 305.390 33.829,303.165 33.773,303.264 33.706 C 303.363 33.638,303.586 33.021,303.759 32.333 C 303.932 31.646,304.121 31.046,304.178 31.000 C 304.236 30.954,304.415 30.373,304.576 29.708 C 304.737 29.044,304.926 28.500,304.995 28.500 C 305.064 28.500,305.260 27.863,305.431 27.083 C 305.602 26.304,305.793 25.667,305.857 25.667 C 305.920 25.667,306.104 25.104,306.266 24.417 C 306.428 23.729,306.616 23.167,306.683 23.167 C 306.750 23.167,306.939 22.585,307.104 21.875 C 307.268 21.165,307.453 20.546,307.514 20.500 C 307.575 20.454,307.678 20.173,307.742 19.875 C 307.935 18.988,308.551 19.120,308.910 20.125 M81.532 50.512 C 81.565 50.611,81.663 50.692,81.750 50.692 C 81.837 50.692,81.935 50.611,81.968 50.512 C 82.001 50.414,81.903 50.333,81.750 50.333 C 81.597 50.333,81.499 50.414,81.532 50.512 M4.333 56.485 C 4.333 56.569,4.031 56.688,3.662 56.751 C 3.036 56.857,2.422 57.321,1.678 58.252 C 1.402 58.597,1.246 60.064,1.398 60.876 C 1.597 61.935,2.999 62.995,4.208 62.999 C 4.369 63.000,4.500 63.058,4.500 63.130 C 4.500 63.201,5.040 63.345,5.700 63.448 C 7.192 63.683,7.658 64.159,7.119 64.896 C 6.681 65.494,4.333 65.361,4.333 64.737 C 4.333 64.607,4.263 64.500,4.178 64.500 C 4.092 64.500,3.975 64.350,3.917 64.167 C 3.823 63.870,3.664 63.833,2.489 63.833 L 1.167 63.833 1.167 64.376 C 1.167 65.539,1.573 66.225,2.891 67.288 C 3.736 67.969,8.667 67.980,8.667 67.301 C 8.667 67.222,8.856 67.087,9.086 66.999 C 9.317 66.911,9.584 66.633,9.680 66.381 C 9.776 66.130,9.943 65.868,10.052 65.801 C 10.388 65.593,10.312 63.121,9.958 62.768 C 9.798 62.607,9.667 62.374,9.667 62.249 C 9.667 62.125,9.517 61.975,9.334 61.917 C 9.152 61.859,8.886 61.695,8.744 61.553 C 8.597 61.407,7.784 61.179,6.868 61.026 C 5.978 60.878,5.212 60.709,5.167 60.651 C 5.121 60.593,4.910 60.491,4.699 60.425 C 4.189 60.266,4.250 59.490,4.792 59.252 C 4.998 59.162,5.167 59.030,5.167 58.960 C 5.167 58.891,5.392 58.833,5.667 58.833 C 5.942 58.833,6.167 58.900,6.167 58.982 C 6.167 59.064,6.349 59.176,6.573 59.232 C 6.841 59.300,7.050 59.532,7.190 59.917 L 7.400 60.500 8.783 60.500 L 10.167 60.500 10.167 59.667 C 10.167 59.208,10.097 58.833,10.011 58.833 C 9.926 58.833,9.803 58.665,9.739 58.458 C 9.502 57.696,8.116 56.667,7.325 56.667 C 7.146 56.667,7.000 56.592,7.000 56.500 C 7.000 56.403,6.444 56.333,5.667 56.333 C 4.933 56.333,4.333 56.402,4.333 56.485 M123.928 56.482 C 123.878 56.563,123.630 56.680,123.377 56.741 C 122.792 56.882,122.000 57.222,122.000 57.332 C 122.000 57.379,121.814 57.633,121.587 57.897 C 120.172 59.542,121.092 62.393,123.190 62.865 C 123.682 62.976,124.121 63.111,124.167 63.164 C 124.212 63.218,124.773 63.350,125.413 63.456 C 126.523 63.641,127.000 63.930,127.000 64.417 C 127.000 65.635,124.124 65.619,123.683 64.399 L 123.478 63.833 122.156 63.833 L 120.833 63.833 120.833 64.376 C 120.833 65.528,121.785 67.167,122.453 67.167 C 122.571 67.167,122.667 67.233,122.667 67.314 C 122.667 67.760,126.099 68.012,127.370 67.659 C 128.497 67.346,129.287 66.699,129.524 65.895 C 129.643 65.494,129.798 65.167,129.870 65.167 C 129.941 65.167,130.000 64.792,130.000 64.333 C 130.000 63.875,129.941 63.500,129.870 63.500 C 129.798 63.500,129.640 63.163,129.518 62.750 C 129.396 62.337,129.206 62.000,129.096 62.000 C 128.986 62.000,128.731 61.846,128.529 61.658 C 128.167 61.320,126.173 60.833,125.152 60.833 C 124.885 60.833,124.667 60.760,124.667 60.670 C 124.667 60.580,124.479 60.459,124.250 60.402 C 123.962 60.329,123.833 60.183,123.833 59.927 C 123.833 59.702,123.997 59.469,124.250 59.333 C 124.479 59.211,124.667 59.048,124.667 58.972 C 124.667 58.896,124.929 58.833,125.250 58.833 C 125.571 58.833,125.833 58.907,125.833 58.997 C 125.833 59.087,126.019 59.207,126.245 59.264 C 126.517 59.332,126.727 59.560,126.862 59.934 L 127.067 60.500 128.367 60.500 L 129.667 60.500 129.667 59.758 C 129.667 58.433,128.800 57.225,127.567 56.833 C 127.209 56.719,126.786 56.560,126.627 56.480 C 126.249 56.288,124.046 56.290,123.928 56.482 M139.167 56.500 C 139.167 56.592,138.998 56.668,138.792 56.670 C 137.830 56.680,135.946 58.075,135.730 58.938 C 135.675 59.155,135.567 59.333,135.490 59.333 C 135.226 59.333,135.002 60.580,135.001 62.051 C 135.000 63.522,135.254 65.000,135.509 65.000 C 135.583 65.000,135.697 65.169,135.761 65.375 C 135.959 66.014,137.087 67.015,138.167 67.510 C 139.154 67.964,142.251 67.892,142.738 67.405 C 142.869 67.274,143.044 67.167,143.127 67.167 C 143.363 67.167,144.500 65.970,144.500 65.722 C 144.500 65.600,144.568 65.500,144.651 65.500 C 144.821 65.500,145.333 64.102,145.333 63.637 C 145.333 63.367,145.176 63.333,143.917 63.333 C 142.807 63.333,142.500 63.384,142.500 63.569 C 142.500 64.612,140.131 65.540,139.272 64.833 C 138.885 64.515,138.319 63.949,138.007 63.570 C 137.699 63.194,137.665 60.973,137.966 60.873 C 138.076 60.836,138.167 60.717,138.167 60.609 C 138.167 60.225,139.013 59.509,139.679 59.330 C 140.794 59.030,142.482 59.855,142.495 60.708 C 142.499 60.963,142.680 61.000,143.917 61.000 C 145.214 61.000,145.333 60.972,145.333 60.672 C 145.333 60.145,144.816 58.762,144.564 58.617 C 144.437 58.543,144.333 58.391,144.333 58.279 C 144.333 57.786,142.583 56.667,141.813 56.667 C 141.641 56.667,141.500 56.592,141.500 56.500 C 141.500 56.405,141.000 56.333,140.333 56.333 C 139.667 56.333,139.167 56.405,139.167 56.500 M392.833 56.485 C 392.833 56.569,392.538 56.687,392.176 56.748 C 391.414 56.877,390.406 57.736,390.240 58.398 C 390.180 58.637,390.064 58.833,389.982 58.833 C 389.900 58.833,389.833 59.321,389.833 59.917 C 389.833 60.528,389.906 61.000,390.000 61.000 C 390.092 61.000,390.169 61.131,390.172 61.292 C 390.177 61.594,390.540 62.167,390.727 62.167 C 390.785 62.167,390.975 62.309,391.149 62.482 C 391.323 62.656,391.791 62.852,392.191 62.918 C 392.590 62.984,392.992 63.095,393.083 63.165 C 393.175 63.235,393.684 63.345,394.213 63.409 C 395.734 63.593,396.318 64.250,395.575 64.939 C 394.949 65.519,392.833 65.380,392.833 64.759 C 392.833 64.122,392.235 63.833,390.915 63.833 L 389.620 63.833 389.713 64.732 C 389.815 65.726,390.182 66.295,391.310 67.208 C 392.252 67.971,397.167 68.044,397.167 67.295 C 397.167 67.220,397.356 67.086,397.588 66.998 C 397.819 66.910,398.059 66.706,398.120 66.544 C 398.181 66.382,398.325 66.155,398.439 66.040 C 398.935 65.538,398.912 63.103,398.407 62.597 C 398.275 62.465,398.167 62.289,398.167 62.207 C 398.167 62.124,397.960 61.950,397.708 61.820 C 397.456 61.690,397.161 61.499,397.051 61.397 C 396.868 61.224,394.745 60.833,393.993 60.833 C 393.814 60.833,393.667 60.766,393.667 60.685 C 393.667 60.603,393.474 60.488,393.239 60.429 C 392.686 60.290,392.721 59.503,393.292 59.252 C 393.498 59.162,393.667 59.030,393.667 58.960 C 393.667 58.891,393.892 58.833,394.167 58.833 C 394.442 58.833,394.667 58.900,394.667 58.982 C 394.667 59.064,394.849 59.176,395.072 59.232 C 395.295 59.288,395.525 59.484,395.583 59.667 C 395.642 59.850,395.759 60.000,395.845 60.000 C 395.930 60.000,396.000 60.112,396.000 60.250 C 396.000 60.451,396.259 60.500,397.333 60.500 L 398.667 60.500 398.667 59.679 C 398.667 59.171,398.571 58.762,398.417 58.607 C 398.279 58.470,398.167 58.289,398.167 58.206 C 398.167 57.847,396.778 56.828,396.153 56.728 C 395.794 56.671,395.500 56.559,395.500 56.479 C 395.500 56.399,394.900 56.333,394.167 56.333 C 393.433 56.333,392.833 56.402,392.833 56.485 M11.333 60.167 C 11.333 62.389,11.394 63.667,11.500 63.667 C 11.592 63.667,11.667 63.932,11.667 64.255 C 11.667 65.314,12.244 66.246,13.529 67.262 C 14.440 67.981,18.667 68.034,18.667 67.325 C 18.667 67.238,18.777 67.167,18.911 67.167 C 19.222 67.167,20.333 66.065,20.333 65.756 C 20.333 65.628,20.465 65.393,20.625 65.232 C 20.884 64.974,20.923 64.477,20.971 60.804 L 21.026 56.667 19.513 56.667 L 18.000 56.667 18.000 60.089 C 18.000 63.533,17.834 64.667,17.330 64.667 C 17.227 64.667,17.023 64.787,16.876 64.934 C 16.491 65.318,15.668 65.134,14.985 64.511 L 14.417 63.992 14.366 60.330 L 14.315 56.667 12.824 56.667 L 11.333 56.667 11.333 60.167 M22.667 62.167 L 22.667 67.667 24.000 67.667 L 25.333 67.667 25.333 66.083 L 25.333 64.500 26.875 64.496 C 30.164 64.488,31.574 63.291,31.580 60.500 C 31.587 57.425,30.446 56.667,25.813 56.667 L 22.667 56.667 22.667 62.167 M32.833 62.167 L 32.833 67.667 34.250 67.667 L 35.667 67.667 35.667 66.083 L 35.667 64.500 37.208 64.499 C 39.539 64.498,40.072 64.271,41.305 62.758 C 41.866 62.069,41.915 58.737,41.370 58.343 C 41.300 58.292,41.107 58.037,40.941 57.778 C 40.344 56.840,39.610 56.674,36.042 56.670 L 32.833 56.667 32.833 62.167 M43.167 62.167 L 43.167 67.667 47.000 67.667 L 50.833 67.667 50.833 66.333 L 50.833 65.000 48.333 65.000 L 45.833 65.000 45.833 60.833 L 45.833 56.667 44.500 56.667 L 43.167 56.667 43.167 62.167 M51.833 62.167 L 51.833 67.667 53.250 67.667 L 54.667 67.667 54.667 62.167 L 54.667 56.667 53.250 56.667 L 51.833 56.667 51.833 62.167 M56.500 62.167 L 56.500 67.667 60.333 67.667 L 64.167 67.667 64.167 66.417 L 64.167 65.167 61.667 65.167 L 59.167 65.167 59.167 64.333 L 59.167 63.500 61.583 63.500 L 64.000 63.500 64.000 62.250 L 64.000 61.000 61.583 61.000 L 59.167 61.000 59.167 60.083 L 59.167 59.167 61.667 59.167 L 64.167 59.167 64.167 57.917 L 64.167 56.667 60.333 56.667 L 56.500 56.667 56.500 62.167 M65.667 62.167 L 65.667 67.667 67.000 67.667 L 68.333 67.667 68.333 65.994 C 68.333 64.373,68.344 64.327,68.667 64.500 C 68.850 64.598,69.000 64.758,69.000 64.856 C 69.000 64.953,69.356 65.395,69.792 65.838 C 70.227 66.281,70.767 66.873,70.992 67.155 C 71.401 67.667,71.401 67.667,73.117 67.667 C 75.246 67.667,75.272 67.584,73.654 65.952 C 72.115 64.402,71.806 63.833,72.500 63.833 C 72.881 63.833,74.167 62.737,74.167 62.411 C 74.167 62.292,74.260 62.163,74.375 62.125 C 74.730 62.006,74.658 58.967,74.292 58.601 C 74.131 58.441,74.000 58.221,74.000 58.113 C 74.000 57.093,72.468 56.667,68.808 56.667 L 65.667 56.667 65.667 62.167 M80.333 62.176 L 80.333 67.685 83.888 67.634 L 87.443 67.583 88.036 67.083 C 89.222 66.083,89.577 63.108,88.557 62.717 C 88.434 62.670,88.333 62.527,88.333 62.399 C 88.333 62.271,88.245 62.167,88.138 62.167 C 88.030 62.167,88.107 61.991,88.308 61.777 C 89.279 60.744,89.220 58.612,88.192 57.539 C 87.421 56.734,87.062 56.667,83.575 56.667 L 80.333 56.667 80.333 62.176 M90.667 62.167 L 90.667 67.667 94.583 67.667 L 98.500 67.667 98.500 66.417 L 98.500 65.167 96.000 65.167 L 93.500 65.167 93.500 64.333 L 93.500 63.500 95.833 63.500 L 98.167 63.500 98.167 62.250 L 98.167 61.000 95.833 61.000 L 93.500 61.000 93.500 60.083 L 93.500 59.167 96.000 59.167 L 98.500 59.167 98.500 57.917 L 98.500 56.667 94.583 56.667 L 90.667 56.667 90.667 62.167 M100.167 62.167 L 100.167 67.667 101.500 67.667 L 102.833 67.667 102.833 65.999 C 102.833 64.372,102.842 64.336,103.167 64.539 C 103.350 64.653,103.501 64.823,103.502 64.915 C 103.503 65.008,103.866 65.458,104.307 65.917 C 104.749 66.375,105.244 66.956,105.408 67.208 L 105.705 67.667 109.090 67.667 L 112.474 67.667 112.642 67.125 C 112.734 66.827,112.858 66.340,112.918 66.042 L 113.026 65.500 114.999 65.500 L 116.971 65.500 117.083 66.167 C 117.145 66.533,117.259 66.833,117.336 66.833 C 117.414 66.833,117.501 67.002,117.530 67.208 C 117.581 67.564,117.667 67.586,119.208 67.631 C 120.947 67.682,120.953 67.680,120.602 67.119 C 120.475 66.916,120.280 66.356,120.169 65.875 C 120.058 65.394,119.913 65.000,119.847 65.000 C 119.781 65.000,119.595 64.438,119.433 63.750 C 119.271 63.063,119.083 62.500,119.016 62.500 C 118.949 62.500,118.762 61.938,118.600 61.250 C 118.438 60.563,118.246 60.000,118.173 60.000 C 118.100 60.000,117.905 59.475,117.738 58.833 C 117.572 58.192,117.385 57.667,117.322 57.667 C 117.260 57.667,117.163 57.439,117.107 57.162 L 117.006 56.656 114.975 56.703 L 112.944 56.750 112.693 57.667 C 112.555 58.171,112.393 58.621,112.332 58.667 C 112.272 58.712,112.083 59.294,111.912 59.958 C 111.742 60.623,111.542 61.167,111.468 61.167 C 111.394 61.167,111.333 61.271,111.333 61.398 C 111.333 61.710,110.793 63.396,110.660 63.500 C 110.601 63.546,110.415 64.108,110.245 64.750 C 110.076 65.392,109.886 65.954,109.823 66.000 C 109.760 66.046,109.656 66.327,109.591 66.625 C 109.488 67.100,109.000 67.422,109.000 67.015 C 109.000 66.931,108.531 66.375,107.958 65.779 C 106.246 63.997,106.216 63.932,107.026 63.770 C 109.726 63.230,109.630 57.607,106.907 56.851 C 106.542 56.750,104.897 56.668,103.208 56.668 L 100.167 56.667 100.167 62.167 M146.667 62.167 L 146.667 67.667 150.500 67.667 L 154.333 67.667 154.333 66.417 L 154.333 65.167 151.833 65.167 L 149.333 65.167 149.333 64.333 L 149.333 63.500 151.750 63.500 L 154.167 63.500 154.167 62.250 L 154.167 61.000 151.750 61.000 L 149.333 61.000 149.333 60.083 L 149.333 59.167 151.833 59.167 L 154.333 59.167 154.333 57.917 L 154.333 56.667 150.500 56.667 L 146.667 56.667 146.667 62.167 M156.000 62.167 L 156.000 67.667 157.417 67.667 L 158.833 67.667 158.833 66.083 L 158.833 64.500 160.375 64.496 C 162.789 64.490,163.204 64.314,164.471 62.758 C 165.033 62.069,165.082 58.737,164.537 58.343 C 164.467 58.292,164.274 58.037,164.108 57.778 C 163.511 56.840,162.777 56.674,159.208 56.670 L 156.000 56.667 156.000 62.167 M167.591 56.875 C 167.555 56.990,167.438 57.383,167.332 57.750 C 167.225 58.117,167.041 58.642,166.922 58.917 C 166.803 59.192,166.608 59.810,166.488 60.292 C 166.368 60.773,166.209 61.167,166.135 61.167 C 166.061 61.167,166.000 61.277,166.000 61.411 C 166.000 61.702,165.569 63.047,165.251 63.750 C 165.127 64.025,164.932 64.625,164.819 65.083 C 164.705 65.542,164.565 65.954,164.507 66.000 C 164.405 66.080,164.000 67.333,164.000 67.567 C 164.000 67.628,164.731 67.657,165.624 67.631 L 167.247 67.583 167.471 66.542 L 167.696 65.500 169.681 65.500 C 171.556 65.500,171.667 65.519,171.667 65.833 C 171.667 66.017,171.731 66.167,171.810 66.167 C 171.888 66.167,172.020 66.485,172.102 66.875 L 172.251 67.583 173.889 67.631 L 175.526 67.679 175.407 67.298 C 175.342 67.088,175.238 66.879,175.176 66.833 C 175.114 66.787,174.924 66.225,174.755 65.583 C 174.585 64.942,174.398 64.379,174.338 64.333 C 174.278 64.287,174.091 63.725,173.921 63.083 C 173.752 62.442,173.565 61.879,173.505 61.833 C 173.445 61.788,173.261 61.244,173.096 60.625 C 172.931 60.006,172.744 59.500,172.680 59.500 C 172.616 59.500,172.465 59.106,172.345 58.625 C 172.226 58.144,172.015 57.506,171.878 57.208 L 171.629 56.667 169.642 56.667 C 168.199 56.667,167.638 56.724,167.591 56.875 M174.167 58.000 L 174.167 59.333 175.750 59.333 L 177.333 59.333 177.333 63.500 L 177.333 67.667 178.667 67.667 L 180.000 67.667 180.000 63.500 L 180.000 59.333 181.583 59.333 L 183.167 59.333 183.167 58.000 L 183.167 56.667 178.667 56.667 L 174.167 56.667 174.167 58.000 M192.833 62.167 L 192.833 67.667 194.167 67.667 L 195.500 67.667 195.523 64.458 C 195.535 62.694,195.578 61.419,195.618 61.625 C 195.657 61.831,195.745 62.000,195.812 62.000 C 195.878 62.000,196.073 62.563,196.245 63.250 C 196.416 63.938,196.603 64.500,196.661 64.500 C 196.719 64.500,196.907 65.063,197.078 65.750 C 197.249 66.438,197.452 67.000,197.528 67.000 C 197.604 67.000,197.667 67.150,197.667 67.333 C 197.667 67.640,197.778 67.667,199.069 67.667 L 200.471 67.667 200.583 67.000 C 200.645 66.633,200.752 66.333,200.820 66.333 C 200.888 66.333,201.086 65.752,201.260 65.042 C 201.433 64.331,201.620 63.712,201.675 63.667 C 201.730 63.621,201.895 63.171,202.041 62.667 L 202.306 61.750 202.320 64.708 L 202.333 67.667 203.833 67.667 L 205.333 67.667 205.333 62.167 L 205.333 56.667 203.246 56.667 L 201.158 56.667 201.058 57.167 C 201.003 57.442,200.907 57.667,200.845 57.667 C 200.782 57.667,200.591 58.210,200.421 58.875 C 200.251 59.540,200.060 60.121,199.998 60.167 C 199.937 60.212,199.750 60.831,199.585 61.542 C 199.229 63.069,198.969 63.175,198.667 61.917 C 198.546 61.413,198.399 61.000,198.340 61.000 C 198.281 61.000,198.093 60.438,197.922 59.750 C 197.751 59.063,197.548 58.500,197.472 58.500 C 197.396 58.500,197.333 58.369,197.332 58.208 C 197.332 58.048,197.253 57.635,197.158 57.292 L 196.984 56.667 194.909 56.667 L 192.833 56.667 192.833 62.167 M207.025 60.708 C 207.085 64.620,207.100 64.771,207.487 65.417 C 207.994 66.265,208.834 67.167,209.116 67.167 C 209.236 67.167,209.333 67.238,209.333 67.325 C 209.333 67.980,213.864 67.984,214.333 67.329 C 214.379 67.265,214.660 67.088,214.958 66.936 C 215.256 66.783,215.500 66.556,215.500 66.430 C 215.500 66.305,215.598 66.165,215.717 66.119 C 215.837 66.073,216.032 65.709,216.150 65.309 C 216.269 64.910,216.434 64.453,216.516 64.294 C 216.599 64.135,216.667 62.354,216.667 60.336 L 216.667 56.667 215.167 56.667 L 213.667 56.667 213.667 60.058 C 213.667 63.247,213.524 64.500,213.162 64.500 C 213.086 64.500,212.907 64.617,212.764 64.760 C 212.087 65.437,210.167 64.797,210.167 63.895 C 210.167 63.770,210.092 63.667,210.000 63.667 C 209.894 63.667,209.833 62.389,209.833 60.167 L 209.833 56.667 208.398 56.667 L 206.962 56.667 207.025 60.708 M218.333 62.177 L 218.333 67.687 221.423 67.635 C 223.234 67.605,224.562 67.514,224.631 67.416 C 224.697 67.325,224.975 67.137,225.250 67.000 C 225.888 66.681,226.944 65.606,227.095 65.122 C 227.159 64.917,227.282 64.705,227.368 64.649 C 228.040 64.216,227.924 60.069,227.220 59.363 C 227.099 59.242,227.000 59.080,227.000 59.004 C 227.000 58.761,225.948 57.667,225.714 57.667 C 225.591 57.667,225.447 57.555,225.394 57.418 C 225.202 56.916,223.730 56.667,220.970 56.667 L 218.333 56.667 218.333 62.177 M231.402 56.794 C 231.302 56.862,231.081 57.442,230.912 58.083 C 230.742 58.725,230.557 59.288,230.499 59.333 C 230.442 59.379,230.274 59.829,230.126 60.333 C 229.818 61.384,229.240 63.018,228.917 63.750 C 228.796 64.025,228.610 64.587,228.505 65.000 C 228.400 65.412,228.211 65.975,228.086 66.250 C 227.961 66.525,227.807 66.959,227.743 67.215 L 227.627 67.679 229.271 67.631 L 230.915 67.583 231.093 66.833 C 231.423 65.439,231.315 65.500,233.434 65.500 C 235.222 65.500,235.333 65.520,235.333 65.833 C 235.333 66.017,235.398 66.167,235.476 66.167 C 235.555 66.167,235.686 66.485,235.768 66.875 L 235.917 67.583 237.542 67.631 C 239.228 67.681,239.515 67.546,238.950 66.970 C 238.832 66.849,238.595 66.225,238.424 65.583 C 238.253 64.942,238.065 64.379,238.005 64.333 C 237.945 64.287,237.758 63.725,237.588 63.083 C 237.419 62.442,237.231 61.879,237.171 61.833 C 237.112 61.788,236.928 61.244,236.763 60.625 C 236.598 60.006,236.411 59.500,236.347 59.500 C 236.283 59.500,236.090 58.956,235.918 58.292 C 235.746 57.627,235.512 56.990,235.398 56.875 C 235.170 56.646,231.725 56.576,231.402 56.794 M239.833 62.167 L 239.833 67.667 241.167 67.667 L 242.500 67.667 242.500 65.583 L 242.500 63.500 244.500 63.500 L 246.500 63.500 246.500 65.583 L 246.500 67.667 247.833 67.667 L 249.167 67.667 249.167 62.167 L 249.167 56.667 247.833 56.667 L 246.500 56.667 246.500 58.583 L 246.500 60.500 244.500 60.500 L 242.500 60.500 242.500 58.583 L 242.500 56.667 241.167 56.667 L 239.833 56.667 239.833 62.167 M259.333 62.180 L 259.333 67.693 262.506 67.638 C 264.366 67.606,265.728 67.514,265.798 67.417 C 265.863 67.325,266.157 67.117,266.450 66.954 C 267.212 66.531,268.008 65.689,268.293 65.005 C 268.427 64.681,268.623 64.363,268.727 64.298 C 269.005 64.123,268.988 60.302,268.708 60.208 C 268.594 60.170,268.500 60.029,268.500 59.895 C 268.500 59.318,267.305 57.667,266.888 57.667 C 266.775 57.667,266.623 57.563,266.550 57.436 C 266.239 56.896,264.903 56.667,262.078 56.667 L 259.333 56.667 259.333 62.180 M272.735 56.794 C 272.635 56.862,272.415 57.442,272.245 58.083 C 272.076 58.725,271.888 59.288,271.829 59.333 C 271.769 59.379,271.581 59.942,271.412 60.583 C 271.242 61.225,271.058 61.788,271.002 61.833 C 270.871 61.940,270.333 63.632,270.333 63.936 C 270.333 64.063,270.266 64.167,270.183 64.167 C 270.101 64.167,269.939 64.560,269.824 65.041 C 269.708 65.522,269.477 66.215,269.311 66.582 C 268.811 67.683,268.812 67.684,270.625 67.631 L 272.250 67.583 272.403 66.792 C 272.487 66.356,272.618 66.000,272.695 66.000 C 272.771 66.000,272.833 65.887,272.833 65.750 C 272.833 65.542,273.157 65.500,274.750 65.500 C 276.556 65.500,276.667 65.519,276.667 65.833 C 276.667 66.017,276.731 66.167,276.810 66.167 C 276.888 66.167,277.020 66.485,277.102 66.875 L 277.251 67.583 278.875 67.631 C 280.562 67.681,280.849 67.546,280.284 66.970 C 280.165 66.849,279.928 66.225,279.757 65.583 C 279.586 64.942,279.398 64.379,279.338 64.333 C 279.278 64.287,279.091 63.725,278.921 63.083 C 278.752 62.442,278.565 61.879,278.505 61.833 C 278.445 61.788,278.261 61.244,278.096 60.625 C 277.931 60.006,277.744 59.500,277.680 59.500 C 277.616 59.500,277.423 58.956,277.251 58.292 C 277.079 57.627,276.845 56.990,276.731 56.875 C 276.503 56.646,273.059 56.576,272.735 56.794 M280.833 62.167 L 280.833 67.667 282.250 67.667 L 283.667 67.667 283.667 64.477 L 283.667 61.287 284.356 62.602 C 284.735 63.325,285.468 64.742,285.986 65.750 L 286.928 67.583 288.714 67.631 L 290.500 67.678 290.500 62.172 L 290.500 56.667 289.004 56.667 L 287.508 56.667 287.462 59.708 C 287.421 62.441,287.394 62.695,287.192 62.208 C 287.068 61.910,286.915 61.667,286.850 61.667 C 286.785 61.667,286.598 61.292,286.433 60.833 C 286.268 60.375,286.081 60.000,286.016 60.000 C 285.952 60.000,285.764 59.625,285.600 59.167 C 285.435 58.708,285.241 58.333,285.168 58.333 C 285.096 58.333,284.909 58.015,284.753 57.625 C 284.378 56.688,284.340 56.672,282.458 56.669 L 280.833 56.667 280.833 62.167 M296.500 62.176 L 296.500 67.685 300.156 67.634 L 303.811 67.583 304.559 66.803 C 305.626 65.688,305.822 63.330,304.893 62.783 C 304.769 62.710,304.667 62.541,304.667 62.408 C 304.667 62.275,304.580 62.167,304.474 62.167 C 304.359 62.167,304.392 62.044,304.558 61.862 C 304.709 61.694,304.833 61.475,304.833 61.376 C 304.833 61.276,304.927 61.163,305.042 61.125 C 305.185 61.077,305.250 60.646,305.250 59.750 C 305.250 58.854,305.185 58.423,305.042 58.375 C 304.927 58.337,304.831 58.218,304.828 58.111 C 304.797 57.022,303.549 56.667,299.755 56.667 L 296.500 56.667 296.500 62.176 M307.000 62.167 L 307.000 67.667 310.833 67.667 L 314.667 67.667 314.667 66.417 L 314.667 65.167 312.167 65.167 L 309.667 65.167 309.667 64.333 L 309.667 63.500 312.083 63.500 L 314.500 63.500 314.500 62.250 L 314.500 61.000 312.083 61.000 L 309.667 61.000 309.667 60.083 L 309.667 59.167 312.167 59.167 L 314.667 59.167 314.667 57.917 L 314.667 56.667 310.833 56.667 L 307.000 56.667 307.000 62.167 M316.167 62.167 L 316.167 67.667 317.500 67.667 L 318.833 67.667 318.833 65.986 C 318.833 64.284,318.996 63.945,319.417 64.769 C 319.508 64.949,319.921 65.445,320.333 65.872 C 320.746 66.299,321.267 66.877,321.492 67.157 C 321.900 67.666,321.904 67.667,323.617 67.667 C 325.746 67.667,325.772 67.584,324.154 65.952 C 322.513 64.299,322.345 63.939,323.137 63.781 C 323.632 63.682,324.667 62.747,324.667 62.399 C 324.667 62.286,324.760 62.163,324.875 62.125 C 325.230 62.006,325.158 58.967,324.792 58.601 C 324.631 58.441,324.500 58.221,324.500 58.113 C 324.500 57.077,323.021 56.667,319.293 56.667 L 316.167 56.667 316.167 62.167 M326.667 62.167 L 326.667 67.667 328.000 67.667 L 329.333 67.667 329.333 65.577 C 329.333 63.540,329.342 63.493,329.667 63.667 C 329.850 63.765,330.000 63.939,330.000 64.054 C 330.000 64.169,330.222 64.522,330.493 64.840 C 330.765 65.157,330.990 65.507,330.993 65.617 C 330.997 65.727,331.096 65.877,331.212 65.950 C 331.329 66.023,331.559 66.295,331.723 66.553 C 332.428 67.660,332.443 67.667,334.204 67.667 C 335.910 67.667,336.431 67.332,335.500 66.833 C 335.317 66.735,335.166 66.564,335.165 66.452 C 335.164 66.259,334.292 65.045,333.754 64.486 C 333.614 64.341,333.500 64.135,333.500 64.029 C 333.500 63.923,333.350 63.742,333.167 63.628 C 332.983 63.513,332.833 63.351,332.833 63.267 C 332.833 63.183,332.635 62.854,332.392 62.536 C 331.998 62.020,331.980 61.941,332.225 61.804 C 332.376 61.719,332.500 61.571,332.500 61.474 C 332.500 61.377,332.725 61.014,333.000 60.667 C 333.275 60.319,333.500 59.950,333.500 59.846 C 333.500 59.742,333.610 59.614,333.744 59.563 C 333.878 59.511,334.031 59.333,334.083 59.167 C 334.136 59.000,334.438 58.539,334.755 58.140 C 335.071 57.742,335.331 57.323,335.332 57.208 C 335.333 57.094,335.408 57.000,335.500 57.000 C 335.592 57.000,335.667 56.925,335.667 56.833 C 335.667 56.732,334.951 56.667,333.852 56.667 L 332.038 56.667 331.761 57.250 C 331.609 57.571,331.432 57.834,331.367 57.835 C 331.303 57.836,331.107 58.136,330.932 58.502 C 330.756 58.868,330.549 59.167,330.470 59.167 C 330.392 59.167,330.204 59.426,330.053 59.743 C 329.496 60.910,329.333 60.646,329.333 58.578 L 329.333 56.667 328.000 56.667 L 326.667 56.667 326.667 62.167 M336.167 60.167 C 336.167 62.389,336.228 63.667,336.333 63.667 C 336.425 63.667,336.500 63.932,336.500 64.255 C 336.500 65.314,337.078 66.246,338.363 67.262 C 339.273 67.981,343.500 68.034,343.500 67.325 C 343.500 67.238,343.610 67.167,343.744 67.167 C 344.055 67.167,345.167 66.065,345.167 65.756 C 345.167 65.628,345.298 65.393,345.458 65.232 C 345.717 64.974,345.756 64.477,345.804 60.804 L 345.859 56.667 344.346 56.667 L 342.833 56.667 342.833 60.089 C 342.833 63.533,342.667 64.667,342.163 64.667 C 342.060 64.667,341.856 64.787,341.709 64.934 C 341.320 65.323,340.512 65.134,339.827 64.494 L 339.250 63.956 339.199 60.311 L 339.149 56.667 337.658 56.667 L 336.167 56.667 336.167 60.167 M349.575 56.794 C 349.479 56.862,349.306 57.254,349.190 57.667 C 349.074 58.079,348.880 58.642,348.759 58.917 C 348.638 59.192,348.441 59.810,348.321 60.292 C 348.202 60.773,348.043 61.167,347.968 61.167 C 347.894 61.167,347.833 61.277,347.833 61.411 C 347.833 61.702,347.403 63.047,347.085 63.750 C 346.960 64.025,346.765 64.625,346.652 65.083 C 346.539 65.542,346.398 65.954,346.340 66.000 C 346.239 66.080,345.833 67.333,345.833 67.567 C 345.833 67.628,346.564 67.657,347.457 67.631 L 349.080 67.583 349.305 66.542 L 349.529 65.500 351.514 65.500 C 353.389 65.500,353.500 65.519,353.500 65.833 C 353.500 66.017,353.564 66.167,353.643 66.167 C 353.722 66.167,353.853 66.485,353.935 66.875 L 354.084 67.583 355.709 67.631 C 357.395 67.681,357.682 67.546,357.117 66.970 C 356.998 66.849,356.761 66.225,356.591 65.583 C 356.420 64.942,356.231 64.379,356.171 64.333 C 356.112 64.287,355.924 63.725,355.755 63.083 C 355.585 62.442,355.398 61.879,355.338 61.833 C 355.278 61.788,355.095 61.244,354.930 60.625 C 354.765 60.006,354.577 59.500,354.514 59.500 C 354.450 59.500,354.257 58.956,354.085 58.292 C 353.913 57.627,353.679 56.990,353.564 56.875 C 353.336 56.646,349.887 56.576,349.575 56.794 M358.000 62.167 L 358.000 67.667 361.833 67.667 L 365.667 67.667 365.667 66.333 L 365.667 65.000 363.167 65.000 L 360.667 65.000 360.667 60.833 L 360.667 56.667 359.333 56.667 L 358.000 56.667 358.000 62.167 M366.667 62.167 L 366.667 67.667 368.000 67.667 L 369.333 67.667 369.333 62.167 L 369.333 56.667 368.000 56.667 L 366.667 56.667 366.667 62.167 M370.500 58.000 L 370.500 59.333 372.083 59.333 L 373.667 59.333 373.667 63.500 L 373.667 67.667 375.000 67.667 L 376.333 67.667 376.333 63.500 L 376.333 59.333 377.917 59.333 L 379.500 59.333 379.500 58.000 L 379.500 56.667 375.000 56.667 L 370.500 56.667 370.500 58.000 M381.902 56.794 C 381.802 56.862,381.581 57.442,381.412 58.083 C 381.242 58.725,381.055 59.288,380.995 59.333 C 380.935 59.379,380.748 59.942,380.579 60.583 C 380.409 61.225,380.225 61.788,380.169 61.833 C 380.038 61.940,379.500 63.632,379.500 63.936 C 379.500 64.063,379.433 64.167,379.351 64.167 C 379.269 64.167,379.071 64.710,378.909 65.375 C 378.748 66.040,378.558 66.622,378.488 66.668 C 378.417 66.715,378.307 66.962,378.244 67.216 L 378.127 67.679 379.772 67.631 L 381.417 67.583 381.570 66.792 C 381.654 66.356,381.785 66.000,381.861 66.000 C 381.938 66.000,382.000 65.887,382.000 65.750 C 382.000 65.542,382.324 65.500,383.917 65.500 C 385.722 65.500,385.833 65.519,385.833 65.833 C 385.833 66.017,385.898 66.167,385.976 66.167 C 386.055 66.167,386.186 66.485,386.268 66.875 L 386.417 67.583 388.042 67.631 C 389.728 67.681,390.015 67.546,389.450 66.970 C 389.332 66.849,389.095 66.225,388.924 65.583 C 388.753 64.942,388.565 64.379,388.505 64.333 C 388.445 64.287,388.258 63.725,388.088 63.083 C 387.919 62.442,387.731 61.879,387.671 61.833 C 387.612 61.788,387.428 61.244,387.263 60.625 C 387.098 60.006,386.911 59.500,386.847 59.500 C 386.783 59.500,386.590 58.956,386.418 58.292 C 386.246 57.627,386.012 56.990,385.898 56.875 C 385.670 56.646,382.225 56.576,381.902 56.794 M85.875 59.399 C 86.764 60.073,85.760 61.000,84.141 61.000 L 83.000 61.000 83.000 60.083 L 83.000 59.167 84.292 59.172 C 85.101 59.175,85.692 59.260,85.875 59.399 M302.133 59.367 C 302.873 60.107,302.110 60.896,300.578 60.974 L 299.333 61.036 299.333 60.102 L 299.333 59.167 300.633 59.167 C 301.422 59.167,302.012 59.245,302.133 59.367 M28.057 59.490 C 28.565 59.683,28.781 60.489,28.503 61.159 C 28.281 61.696,27.835 61.833,26.313 61.833 L 25.333 61.833 25.333 60.583 L 25.333 59.333 26.489 59.333 C 27.125 59.333,27.830 59.404,28.057 59.490 M38.344 59.506 C 38.522 59.601,38.667 59.788,38.667 59.923 C 38.667 60.057,38.742 60.167,38.833 60.167 C 39.083 60.167,39.034 60.823,38.765 61.092 C 38.636 61.222,38.500 61.415,38.465 61.523 C 38.425 61.642,37.865 61.749,37.033 61.797 L 35.667 61.876 35.667 60.605 L 35.667 59.333 36.844 59.333 C 37.492 59.333,38.167 59.411,38.344 59.506 M71.494 59.656 C 72.159 60.898,71.469 61.667,69.689 61.667 L 68.333 61.667 68.333 60.500 L 68.333 59.333 69.827 59.333 C 71.134 59.333,71.343 59.374,71.494 59.656 M105.778 59.463 C 106.268 59.774,106.242 61.333,105.747 61.333 C 105.611 61.333,105.500 61.408,105.500 61.500 C 105.500 61.597,104.944 61.667,104.167 61.667 L 102.833 61.667 102.833 60.500 L 102.833 59.333 104.208 59.336 C 104.965 59.337,105.671 59.394,105.778 59.463 M161.758 59.774 C 162.218 60.271,162.280 60.744,161.932 61.092 C 161.802 61.222,161.667 61.415,161.631 61.523 C 161.592 61.642,161.032 61.749,160.200 61.797 L 158.833 61.876 158.833 60.605 L 158.833 59.333 160.091 59.333 C 161.238 59.333,161.386 59.372,161.758 59.774 M223.786 59.770 C 224.041 59.959,224.355 60.332,224.484 60.598 C 224.613 60.865,224.782 61.108,224.859 61.139 C 224.937 61.169,225.000 61.556,225.000 61.997 C 225.000 63.709,223.667 65.000,221.900 65.000 L 221.000 65.000 221.000 62.148 L 221.000 59.296 222.161 59.361 C 222.997 59.409,223.453 59.523,223.786 59.770 M264.384 59.487 C 266.291 60.213,266.616 63.548,264.865 64.437 C 264.527 64.609,264.225 64.806,264.194 64.875 C 264.164 64.944,263.695 65.000,263.153 65.000 L 262.167 65.000 262.167 62.167 L 262.167 59.333 263.072 59.333 C 263.571 59.333,264.161 59.403,264.384 59.487 M321.994 59.656 C 322.659 60.898,321.969 61.667,320.189 61.667 L 318.833 61.667 318.833 60.500 L 318.833 59.333 320.327 59.333 C 321.634 59.333,321.843 59.374,321.994 59.656 M115.698 61.680 C 115.779 61.733,115.890 62.052,115.944 62.388 L 116.044 63.000 114.897 62.997 C 114.266 62.996,113.834 62.940,113.936 62.872 C 114.038 62.805,114.263 62.188,114.436 61.500 C 114.609 60.813,114.806 60.225,114.875 60.194 C 114.944 60.164,115.007 60.014,115.017 59.861 C 115.026 59.708,115.150 60.033,115.292 60.583 C 115.434 61.133,115.617 61.627,115.698 61.680 M170.157 61.000 C 170.295 61.105,170.667 62.365,170.667 62.728 C 170.667 62.953,170.473 63.000,169.542 62.997 C 168.923 62.996,168.500 62.940,168.603 62.872 C 168.705 62.805,168.930 62.188,169.103 61.500 C 169.275 60.813,169.473 60.225,169.542 60.194 C 169.610 60.164,169.674 60.014,169.684 59.861 C 169.693 59.708,169.779 59.883,169.875 60.250 C 169.970 60.617,170.097 60.954,170.157 61.000 M233.824 61.000 C 233.962 61.105,234.333 62.365,234.333 62.728 C 234.333 62.949,234.148 63.000,233.342 63.000 L 232.351 63.000 232.597 62.125 C 232.732 61.644,232.906 61.135,232.983 60.995 C 233.061 60.854,233.184 60.479,233.258 60.161 L 233.391 59.583 233.553 60.250 C 233.642 60.617,233.764 60.954,233.824 61.000 M275.157 61.000 C 275.295 61.105,275.667 62.365,275.667 62.728 C 275.667 62.949,275.482 63.000,274.676 63.000 L 273.685 63.000 273.930 62.125 C 274.065 61.644,274.239 61.135,274.317 60.995 C 274.394 60.854,274.518 60.479,274.591 60.161 L 274.724 59.583 274.886 60.250 C 274.975 60.617,275.097 60.954,275.157 61.000 M351.990 61.000 C 352.128 61.105,352.500 62.365,352.500 62.728 C 352.500 62.949,352.315 63.000,351.512 63.000 L 350.524 63.000 350.835 61.958 C 351.006 61.385,351.242 60.621,351.361 60.260 L 351.575 59.603 351.728 60.260 C 351.813 60.621,351.930 60.954,351.990 61.000 M384.324 61.000 C 384.462 61.105,384.833 62.365,384.833 62.728 C 384.833 62.949,384.648 63.000,383.846 63.000 L 382.858 63.000 383.126 62.042 C 383.274 61.515,383.445 61.046,383.507 61.000 C 383.568 60.954,383.678 60.617,383.751 60.250 L 383.884 59.583 384.049 60.250 C 384.140 60.617,384.264 60.954,384.324 61.000 M86.029 63.682 C 86.301 63.828,86.348 63.968,86.265 64.382 C 86.123 65.091,85.954 65.161,84.375 65.164 L 83.000 65.167 83.000 64.333 L 83.000 63.500 84.344 63.500 C 85.084 63.500,85.842 63.582,86.029 63.682 M302.375 63.732 C 303.278 64.417,302.419 65.167,300.731 65.167 L 299.333 65.167 299.333 64.333 L 299.333 63.500 300.708 63.505 C 301.587 63.509,302.189 63.591,302.375 63.732 M183.943 66.292 C 183.883 67.185,183.835 68.198,183.834 68.542 L 183.833 69.167 184.762 69.167 C 185.285 69.167,185.779 69.076,185.894 68.958 C 186.093 68.755,186.667 66.632,186.667 66.101 C 186.667 65.954,186.742 65.833,186.833 65.833 C 186.925 65.833,187.000 65.571,187.000 65.250 L 187.000 64.667 185.525 64.667 L 184.050 64.667 183.943 66.292 M250.776 66.286 C 250.717 67.183,250.668 68.198,250.668 68.542 L 250.667 69.167 251.595 69.167 C 252.761 69.167,252.866 69.054,253.230 67.417 C 253.393 66.683,253.603 65.924,253.697 65.730 C 254.086 64.920,253.862 64.754,252.315 64.702 L 250.884 64.654 250.776 66.286 " stroke="none" fill="#048ca4" fill-rule="evenodd"></path><path id="path1" d="" stroke="none" fill="#088ca4" fill-rule="evenodd"></path><path id="path2" d="" stroke="none" fill="#088ca4" fill-rule="evenodd"></path><path id="path3" d="" stroke="none" fill="#088ca4" fill-rule="evenodd"></path><path id="path4" d="" stroke="none" fill="#088ca4" fill-rule="evenodd"></path></g></svg>